<svg height="511pt" viewBox="-62 1 511 511.999" width="511pt" xmlns="http://www.w3.org/2000/svg"><path d="m380.582031 417.136719c4.144531 0 7.5-3.359375 7.5-7.5v-263.359375c0-12.519532-10.183593-22.703125-22.699219-22.703125h-68.859374v-81.96875c0-1.988281-.792969-3.894531-2.199219-5.300781l-34.109375-34.109376c-.011719-.011718-.023438-.019531-.039063-.03125-1.402343-1.386718-3.292969-2.164062-5.265625-2.164062h-132.328125c-.019531 0-.035156.0117188-.054687.0117188-1.929688.015625-3.824219.7617192-5.246094 2.1796872l-34.109375 34.109375c-1.40625 1.410157-2.195313 3.316407-2.195313 5.304688v81.96875h-57.773437c-12.519531 0-22.703125 10.183593-22.703125 22.703125v333.316406c0 17.867188 14.539062 32.40625 32.414062 32.40625h322.753907c17.875 0 32.414062-14.539062 32.414062-32.40625v-36.964844c0-4.144531-3.355469-7.503906-7.5-7.503906-4.140625 0-7.5 3.359375-7.5 7.503906v36.964844c0 9.597656-7.8125 17.402344-17.414062 17.402344h-85.421875l-5.523438-132.90625c-.078125-1.90625.605469-3.710938 1.925782-5.085938 1.316406-1.375 3.09375-2.132812 5.003906-2.132812 5.851562 0 11.359375-2.28125 15.503906-6.425782 4.144531-4.144531 6.429688-9.652343 6.429688-15.507812v-92.242188c0-4.140624-3.359376-7.5-7.503907-7.5-4.140625 0-7.5 3.359376-7.5 7.5v92.242188c0 1.847656-.722656 3.585938-2.035156 4.898438-1.308594 1.3125-3.046875 2.03125-4.894531 2.03125-6.035156 0-11.65625 2.398437-15.828125 6.75-4.175781 4.351562-6.339844 10.066406-6.089844 16.097656l5.496094 132.28125h-21.941407l6.210938-132.167969c.285156-6.046875-1.855469-11.789063-6.03125-16.167969-4.179688-4.378906-9.816406-6.792968-15.875-6.792968h-1.058594c-3.820312 0-6.929687-3.109376-6.929687-6.929688v-92.242188c0-4.140624-3.359375-7.5-7.503907-7.5-4.140624 0-7.5 3.359376-7.5 7.5v92.242188c0 12.09375 9.839844 21.933594 21.933594 21.933594h1.058594c1.917969 0 3.699219.761718 5.019531 2.144531 1.316407 1.382813 1.992188 3.195313 1.902344 5.101563l-6.246094 132.878906h-53.613281l-4.664062-112.304688c-.304688-7.324218 2.964843-14.511718 8.757812-19.226562 11.078125-9.035156 18.261719-22.582032 19.214844-36.242188 2.253906-32.164062-6.726563-63.21875-23.4375-81.046875-7.960938-8.492187-16.949219-12.980469-26.003906-12.980469-.046876 0-.097657 0-.144532 0-9.941406.050782-19.449218 4.675782-27.492187 13.375-15.683594 16.957032-23.570313 47.285157-21.09375 81.128907 1 13.632812 8.335937 27.128906 19.628906 36.109375 6.085937 4.832031 9.507813 12.1875 9.160156 19.675781l-5.234375 111.515625h-80.433594c-9.601562 0-17.414062-7.808594-17.414062-17.402344v-333.320312c0-4.246094 3.457031-7.699219 7.703125-7.699219h342.179687c4.246094 0 7.699219 3.453125 7.699219 7.699219v263.359375c0 4.144531 3.359375 7.5 7.5 7.5zm-261.832031-63.074219c-7.945312-6.320312-13.308594-16.078125-14-25.460938-3.222656-44.117187 12.3125-64.613281 17.152344-69.847656 5.148437-5.566406 10.871094-8.523437 16.550781-8.554687h.0625c4.738281 0 10.082031 2.921875 15.0625 8.234375 10.433594 11.128906 21.777344 36.074218 19.417969 69.742187v.003907c-.65625 9.457031-5.917969 19.289062-13.726563 25.65625-9.4375 7.6875-14.769531 19.457031-14.265625 31.480468l4.632813 111.679688h-21.273438l5.203125-110.8125c.574219-12.296875-4.96875-24.304688-14.816406-32.121094zm162.769531-309.347656v78.855468h-19.109375v-97.964843zm-166.433593-19.109375v97.964843h-19.109376v-78.855468zm15-10.601563h117.324218v19.101563h-95.09375c-4.144531 0-7.5 3.359375-7.5 7.5 0 4.144531 3.355469 7.5 7.5 7.5h95.09375v74.46875h-117.324218zm0 0"/><path d="m222.609375 244.109375v63.71875c0 4.144531 3.359375 7.5 7.5 7.5 4.144531 0 7.503906-3.355469 7.503906-7.5v-63.71875c0-4.140625-3.359375-7.5-7.503906-7.5-4.140625 0-7.5 3.359375-7.5 7.5zm0 0"/><path d="m250.949219 244.109375v63.71875c0 4.144531 3.359375 7.5 7.5 7.5 4.144531 0 7.503906-3.355469 7.503906-7.5v-63.71875c0-4.140625-3.359375-7.5-7.503906-7.5-4.140625 0-7.5 3.359375-7.5 7.5zm0 0"/></svg>