<svg id="Capa_1" enable-background="new 0 0 509.08 509.08" height="512" viewBox="0 0 509.08 509.08" width="512" xmlns="http://www.w3.org/2000/svg"><path d="m484.18 295.86c0 22.88-18.559 41.44-41.44 41.44h-378.29c-22.89 0-41.44-18.56-41.44-41.44 0-22.856 18.53-41.44 41.44-41.44h378.29c22.88 0 41.44 18.55 41.44 41.44z" fill="#804231"/><path d="m484.18 295.86c0 22.88-18.559 41.44-41.44 41.44h-188.2v-82.88h188.2c22.88 0 41.44 18.55 41.44 41.44z" fill="#673416"/><path d="m509.08 365.17v20.72c0 52.81-42.81 95.63-95.63 95.63h-317.75c-52.82 0-95.64-42.82-95.64-95.63v-20.72c0-17.6 14.28-31.87 31.88-31.87h445.27c17.6 0 31.87 14.27 31.87 31.87z" fill="#ff9f00"/><path d="m509.08 365.17v20.72c0 52.81-42.81 95.63-95.63 95.63h-158.91v-148.22h222.67c17.6 0 31.87 14.27 31.87 31.87z" fill="#ff712f"/><path d="m424.12 236.35v151.52c0 17.79-14.06 32.73-31.84 33.07-18.26.35-33.12-14.35-33.12-32.47v-33.84c0-2.29-1.58-3.93-3.45-4.4-1.42-.35-3.02-.03-4.23 1.2-5.89 5.96-14.05 9.65-23.09 9.65-17.95 0-32.48-14.55-32.48-32.48v-92.25z" fill="#ff0059"/><path d="m485.09 213.89c0 22.873-18.54 41.44-41.44 41.44h-378.29c-22.88 0-41.44-18.55-41.44-41.44 0-22.885 18.563-41.44 41.44-41.44h378.29c22.89 0 41.44 18.55 41.44 41.44z" fill="#00cc71"/><path d="m485.09 213.89c0 22.873-18.54 41.44-41.44 41.44h-189.11v-82.88h189.11c22.89 0 41.44 18.55 41.44 41.44z" fill="#00ab5e"/><path d="m372.92 127.58-118.38 95.83-76.97 62.3c-6.83 5.54-16.86 4.49-22.4-2.34l-126.47-155.79z" fill="#ffeb95"/><path d="m372.92 127.58-118.38 95.83v-95.83z" fill="#ffda2e"/><path d="m509.02 123.19v20.72c0 17.6-14.28 31.87-31.88 31.87h-445.27c-17.6 0-31.87-14.27-31.87-31.87v-20.72c0-52.81 42.81-95.63 95.63-95.63h317.75c52.82 0 95.64 42.82 95.64 95.63z" fill="#ff9f00"/><path d="m477.14 175.78h-222.6v-148.22h158.84c52.82 0 95.64 42.82 95.64 95.63v20.72c0 17.6-14.28 31.87-31.88 31.87z" fill="#ff712f"/><path d="m157.768 68.583c-8.284 0-15 6.716-15 15v7.438c0 8.284 6.716 15 15 15s15-6.716 15-15v-7.438c0-8.284-6.715-15-15-15z" fill="#ffebbe"/><path d="m222.587 96.21c-8.284 0-15 6.716-15 15v7.438c0 8.284 6.716 15 15 15s15-6.716 15-15v-7.438c0-8.284-6.716-15-15-15z" fill="#ffebbe"/><g fill="#ffd87c"><path d="m287.405 68.583c-8.284 0-15 6.716-15 15v7.438c0 8.284 6.716 15 15 15s15-6.716 15-15v-7.438c0-8.284-6.716-15-15-15z"/><path d="m352.223 96.21c-8.284 0-15 6.716-15 15v7.438c0 8.284 6.716 15 15 15s15-6.716 15-15v-7.438c0-8.284-6.716-15-15-15z"/></g></svg>